<svg width="35" height="35" viewBox="0 0 35 35" fill="none" xmlns="http://www.w3.org/2000/svg">
<path d="M34.161 21.5359C31.845 30.8256 22.4355 36.4787 13.1446 34.1626C3.85814 31.8466 -1.79548 22.437 0.521131 13.1478C2.83612 3.85701 12.2451 -1.79715 21.5332 0.518919C30.8235 2.83499 36.4766 12.2456 34.1605 21.5359H34.161Z" fill="#262626"/>
<path fill-rule="evenodd" clip-rule="evenodd" d="M22.563 15.3262C22.7968 13.7609 21.605 12.9194 19.9754 12.3581L20.504 10.2377L19.2129 9.91603L18.6983 11.9806C18.3593 11.896 18.0108 11.8162 17.6646 11.7372L18.1829 9.65907L16.8929 9.3374L16.3639 11.4571C16.0831 11.3931 15.8074 11.3299 15.5397 11.2633L15.5412 11.2567L13.7612 10.8123L13.4179 12.1908C13.4179 12.1908 14.3755 12.4103 14.3553 12.4239C14.878 12.5544 14.9729 12.9003 14.9567 13.1746L14.3545 15.5902C14.3906 15.5994 14.4373 15.6126 14.4887 15.6332L14.3527 15.5994L13.5083 18.9833C13.4443 19.1421 13.2822 19.3803 12.9168 19.2899C12.9297 19.3086 11.9786 19.0557 11.9786 19.0557L11.3379 20.5335L13.0179 20.9522C13.2075 20.9997 13.3949 21.0486 13.5802 21.097C13.7002 21.1283 13.8193 21.1593 13.9377 21.1897L13.4035 23.3347L14.6927 23.6564L15.2221 21.5345C15.5739 21.6301 15.9158 21.7183 16.2503 21.8014L15.7232 23.9134L17.0139 24.235L17.548 22.0944C19.7489 22.5109 21.4043 22.3429 22.1002 20.3526C22.6615 18.7498 22.0726 17.8253 20.9146 17.222C21.7579 17.0268 22.3932 16.4721 22.5627 15.3262H22.563ZM19.6136 19.4615C19.2472 20.9326 16.9441 20.3239 15.8912 20.0456C15.7969 20.0207 15.7127 19.9985 15.6408 19.9806L16.3495 17.1393C16.4374 17.1612 16.5449 17.1853 16.6666 17.2126C17.7558 17.457 19.9879 17.9579 19.6139 19.4615H19.6136ZM16.8854 15.8942C17.7639 16.1286 19.6788 16.6395 20.0124 15.3031C20.3534 13.936 18.4914 13.5239 17.582 13.3227C17.4798 13.3001 17.3896 13.2801 17.3159 13.2617L16.6733 15.8387C16.7341 15.8539 16.8055 15.8729 16.8854 15.8942Z" fill="#CAFF33"/>
</svg>
