<svg width="35" height="35" viewBox="0 0 35 35" fill="none" xmlns="http://www.w3.org/2000/svg">
<path d="M34.5874 17.3413C34.5874 26.8679 26.8647 34.5908 17.3382 34.5908C7.81162 34.5908 0.0888672 26.8679 0.0888672 17.3413C0.0888672 7.81479 7.81162 0.092041 17.3382 0.092041C26.8646 0.092041 34.5874 7.81479 34.5874 17.3413Z" fill="#262626"/>
<path d="M22.1858 24.5485L21.7877 22.7411C21.7652 22.6348 21.7083 22.5552 21.6172 22.5024C21.5186 22.4492 21.4201 22.4419 21.3217 22.4798L21.2648 22.5024L21.1282 22.5364C21.0675 22.5514 20.9974 22.5686 20.9178 22.5875C20.8382 22.6065 20.7456 22.6253 20.6393 22.6443C20.5336 22.6633 20.4213 22.6804 20.3041 22.6956C20.1867 22.7104 20.0599 22.7239 19.9234 22.7353C19.7868 22.7465 19.6505 22.7523 19.514 22.7523C18.5515 22.7523 17.6855 22.4928 16.9163 21.9736C16.147 21.4543 15.5805 20.7514 15.2168 19.8648H19.6161C19.6996 19.8648 19.7754 19.8365 19.8434 19.7795C19.9118 19.7228 19.9535 19.6528 19.9684 19.5691L20.2412 18.2958C20.2641 18.1825 20.2412 18.08 20.1732 17.989C20.0974 17.898 20.0025 17.8524 19.8889 17.8524H14.6712C14.6485 17.3371 14.6485 16.9392 14.6712 16.6588H20.2188C20.4237 16.6588 20.5448 16.5603 20.5826 16.3633L20.8555 15.0673C20.8781 14.9612 20.8519 14.8628 20.7759 14.7718C20.7079 14.6808 20.6132 14.6351 20.4919 14.6351H15.1714C15.5504 13.7863 16.1187 13.1194 16.8767 12.6344C17.6346 12.1492 18.491 11.9067 19.4459 11.9067C19.4763 11.8916 19.588 11.8954 19.7811 11.9181C19.9744 11.9407 20.0845 11.9503 20.1109 11.9465C20.137 11.9427 20.236 11.9542 20.4063 11.9805C20.5769 12.007 20.6622 12.0203 20.6622 12.0203L20.8612 12.0601C20.9182 12.0715 20.9617 12.0809 20.992 12.0885L21.0375 12.0999C21.1359 12.1303 21.2266 12.1208 21.3103 12.0715C21.3937 12.0221 21.4469 11.9483 21.4696 11.8498L21.9585 10.0423C21.9811 9.94375 21.9697 9.85281 21.9245 9.76947C21.8562 9.67836 21.7803 9.62154 21.6969 9.59889C20.9997 9.4246 20.2643 9.3374 19.4914 9.3374C17.7936 9.3374 16.2761 9.82258 14.9384 10.7925C13.6007 11.7626 12.6779 13.0435 12.1701 14.635H11.0561C10.95 14.635 10.8629 14.6691 10.7946 14.7373C10.7266 14.8054 10.6924 14.8926 10.6924 14.9988V16.2948C10.6924 16.4008 10.7265 16.488 10.7946 16.5561C10.8629 16.6244 10.9501 16.6583 11.0561 16.6583H11.8178C11.7949 17.0222 11.7913 17.4199 11.8064 17.8521H11.0561C10.9576 17.8521 10.8724 17.8881 10.8004 17.9601C10.7284 18.032 10.6924 18.1173 10.6924 18.2157V19.5004C10.6924 19.599 10.7284 19.6841 10.8004 19.7563C10.8724 19.8283 10.9576 19.864 11.0561 19.864H12.1361C12.6136 21.5389 13.5156 22.871 14.8419 23.86C16.1682 24.8493 17.7181 25.3436 19.4914 25.3436C19.6356 25.3436 19.7814 25.3401 19.9292 25.3322C20.0774 25.3246 20.2154 25.3131 20.3443 25.2982C20.4731 25.2831 20.6001 25.2663 20.7252 25.2472C20.8501 25.2281 20.9639 25.2095 21.0661 25.1902C21.1684 25.1714 21.265 25.1525 21.3559 25.1337C21.4469 25.1145 21.5284 25.0939 21.6005 25.071C21.6725 25.0485 21.7328 25.0313 21.7823 25.0202C21.8316 25.0088 21.8714 24.9953 21.9015 24.9804L21.9585 24.9689C22.0419 24.9387 22.1063 24.8836 22.1517 24.8039C22.1972 24.7248 22.2084 24.6394 22.1858 24.5485Z" fill="#CAFF33"/>
</svg>
