<svg width="35" height="35" viewBox="0 0 35 35" fill="none" xmlns="http://www.w3.org/2000/svg">
<path d="M34.5874 17.3413C34.5874 26.8679 26.8647 34.5908 17.3382 34.5908C7.81162 34.5908 0.0888672 26.8679 0.0888672 17.3413C0.0888672 7.81479 7.81162 0.092041 17.3382 0.092041C26.8646 0.092041 34.5874 7.81479 34.5874 17.3413Z" fill="#262626"/>
<g opacity="0.8">
<path d="M17.2833 9.3374L17.1768 9.69953V20.2077L17.2833 20.3141L22.1611 17.4308L17.2833 9.3374Z" fill="#CAFF33"/>
<path d="M17.2831 9.3374L12.4053 17.4308L17.2831 20.3141V15.2138V9.3374Z" fill="#CAFF33"/>
<path d="M17.2827 21.9011L17.2227 21.9743V25.7175L17.2827 25.8929L22.1634 19.0193L17.2827 21.9011Z" fill="#CAFF33"/>
<path d="M17.2831 25.8929V21.9011L12.4053 19.0193L17.2831 25.8929Z" fill="#CAFF33"/>
<path d="M17.2832 20.3142L22.1609 17.4309L17.2832 15.2139V20.3142Z" fill="#CAFF33"/>
<path d="M12.4053 17.4309L17.283 20.3142V15.2139L12.4053 17.4309Z" fill="#CAFF33"/>
</g>
</svg>
