<svg width="35" height="35" viewBox="0 0 35 35" fill="none" xmlns="http://www.w3.org/2000/svg">
<path fill-rule="evenodd" clip-rule="evenodd" d="M17.3407 34.6814C26.9177 34.6814 34.6814 26.9177 34.6814 17.3407C34.6814 7.76371 26.9177 0 17.3407 0C7.76371 0 0 7.76371 0 17.3407C0 26.9177 7.76371 34.6814 17.3407 34.6814Z" fill="#262626"/>
<path fill-rule="evenodd" clip-rule="evenodd" d="M15.8213 9.3374C16.7737 9.3374 17.7225 9.3374 18.6749 9.3374C18.6189 9.98164 18.5593 10.6294 18.5068 11.2736C19.6167 11.3542 20.6986 11.7113 21.672 12.24C21.2518 13.2974 20.8282 14.3548 20.4045 15.4122C19.5852 14.7154 18.5068 14.3303 17.4319 14.3443C17.1623 14.3513 16.8822 14.4038 16.6581 14.5578C16.5111 14.6594 16.4025 14.8169 16.371 14.992C16.3465 15.1321 16.3535 15.2896 16.4305 15.4157C16.5181 15.5557 16.6721 15.6398 16.8262 15.6923C17.1413 15.8043 17.4809 15.8113 17.81 15.8463C18.5838 15.9409 19.3611 16.0739 20.0929 16.3505C20.6601 16.5676 21.2028 16.8932 21.5915 17.3694C21.9591 17.8071 22.1727 18.3603 22.2532 18.9275C22.3477 19.5822 22.3197 20.2615 22.1167 20.8987C21.9591 21.4099 21.6895 21.8861 21.3394 22.2887C20.6146 23.129 19.5502 23.6332 18.4578 23.7628C18.4928 24.4525 18.5348 25.1388 18.5733 25.8286C17.67 25.8286 16.7702 25.8286 15.8703 25.8286C15.9053 25.1458 15.9509 24.463 15.9824 23.7803C15.2576 23.7558 14.5398 23.5947 13.8641 23.3391C13.2093 23.0905 12.5861 22.7614 12.0049 22.3763C12.432 21.2769 12.8592 20.1774 13.2899 19.0745C13.7765 19.4842 14.2947 19.8658 14.8619 20.1564C15.4712 20.4681 16.1469 20.6676 16.8332 20.6746C17.1588 20.6781 17.4949 20.6606 17.803 20.5486C17.9921 20.4786 18.1777 20.356 18.2617 20.1634C18.3493 19.9604 18.3422 19.7048 18.2092 19.5227C18.1147 19.4002 17.9816 19.3161 17.8416 19.2566C17.6525 19.1796 17.4564 19.1376 17.2568 19.106C16.5216 18.987 15.7828 18.889 15.072 18.6579C14.5013 18.4723 13.9446 18.2132 13.4894 17.8141C13.2023 17.5655 12.9642 17.2609 12.7962 16.9177C12.5441 16.4065 12.4495 15.8288 12.4566 15.2616C12.4566 14.6279 12.5861 13.9836 12.9012 13.4269C13.1743 12.9297 13.591 12.5236 14.0601 12.212C14.6274 11.8373 15.2611 11.5817 15.9053 11.3752C15.8773 10.6959 15.8493 10.0167 15.8213 9.3374Z" fill="#CAFF33"/>
</svg>
