<svg width="78" height="78" viewBox="0 0 78 78" fill="none" xmlns="http://www.w3.org/2000/svg">
<rect width="78" height="78" rx="39" fill="url(#paint0_linear_21_75)" fill-opacity="0.05"/>
<rect x="10" y="10" width="58" height="58" rx="29" fill="url(#paint1_linear_21_75)" fill-opacity="0.1"/>
<rect x="10.5" y="10.5" width="57" height="57" rx="28.5" stroke="url(#paint2_linear_21_75)" stroke-opacity="0.2"/>
<g clip-path="url(#clip0_21_75)">
<path d="M41.6914 30.8782C41.7243 30.9166 41.7298 30.9276 41.7353 30.9276C42.2797 31.0046 42.5327 31.4115 42.8241 31.8184C43.1595 32.2804 43.561 32.7038 43.9899 33.0887C45.1171 34.106 45.81 35.3377 46.0409 36.8389C46.4423 39.4673 44.9357 42.1672 42.4612 43.2175C38.7055 44.8122 34.5099 42.3872 34.0755 38.3291C33.8445 36.168 34.6364 34.3809 36.286 32.9732C36.8194 32.5168 37.2648 31.9889 37.6332 31.3895C37.6992 31.2796 37.8202 31.1916 37.9357 31.1366C38.1226 31.0486 38.3316 30.9991 38.568 30.9166C38.491 30.8232 38.4361 30.7572 38.3756 30.6912C38.0071 30.3118 37.6387 29.9214 37.2648 29.5529C37.1328 29.421 37.0723 29.2835 37.0778 29.0965C37.0888 28.3157 37.0833 27.5404 37.0833 26.7595C37.0833 26.4461 37.4683 25.9457 37.7817 25.8852C38.1391 25.8137 38.5075 25.7752 38.865 25.7038C38.9694 25.6818 39.0849 25.6158 39.1454 25.5333C39.6678 24.8294 40.5861 24.8239 41.103 25.5223C41.1745 25.6158 41.3119 25.6873 41.4274 25.7148C41.7573 25.7862 42.0928 25.8247 42.4282 25.8852C42.7636 25.9512 43.121 26.3856 43.121 26.7265C43.121 27.5129 43.1155 28.3047 43.1265 29.091C43.132 29.2945 43.0661 29.432 42.9286 29.5749C42.5107 29.9983 42.1093 30.4327 41.6914 30.8782ZM39.3818 33.941C39.3654 34.007 39.3489 34.0455 39.3544 34.0785C39.4258 34.4469 39.2554 34.6064 38.9144 34.7438C38.2656 35.0133 37.9742 35.5576 37.9906 36.256C38.0071 36.9488 38.3811 37.3778 39.0079 37.6032C39.2829 37.7022 39.5688 37.7737 39.8437 37.8672C40.0967 37.9496 40.3496 38.0321 40.5916 38.1311C40.795 38.2136 40.9105 38.373 40.8885 38.604C40.8665 38.8404 40.7181 38.9779 40.5091 39.0164C40.2947 39.0604 40.0637 39.0989 39.8602 39.0494C39.4643 38.9559 39.0849 38.7965 38.667 38.6535C38.48 38.9009 38.2656 39.1814 38.0071 39.5278C38.3976 39.6983 38.733 39.8742 39.0904 39.9952C39.2939 40.0612 39.3763 40.1492 39.3489 40.3581C39.3324 40.5066 39.3434 40.6606 39.3434 40.831C39.6568 40.831 39.9207 40.831 40.1847 40.831C40.5641 40.831 40.5806 40.831 40.5586 40.4406C40.5476 40.1987 40.6026 40.0667 40.8665 40.0337C41.004 40.0172 41.1415 39.9402 41.2679 39.8687C41.8508 39.5498 42.0928 39.0384 42.0818 38.3895C42.0708 37.7737 41.7628 37.3503 41.213 37.1028C40.9655 36.9928 40.7016 36.9104 40.4376 36.8224C40.1077 36.7124 39.7778 36.6134 39.4478 36.4924C39.2444 36.4155 39.1619 36.2505 39.1784 36.0305C39.1949 35.8216 39.3214 35.6786 39.5138 35.6456C39.7448 35.6071 39.9922 35.5851 40.2177 35.6236C40.4926 35.6731 40.7511 35.7996 41.0425 35.8986C41.224 35.6181 41.4109 35.3212 41.6309 34.9748C41.3779 34.8593 41.1635 34.7163 40.9325 34.6778C40.6081 34.6228 40.5091 34.4744 40.5476 34.1664C40.5586 34.095 40.4596 33.952 40.3991 33.9465C40.0692 33.93 39.7228 33.941 39.3818 33.941Z" fill="#CAFF33"/>
<path d="M39.679 52.989C38.5077 52.989 37.331 52.956 36.1597 53C35.3734 53.0275 34.7025 52.791 34.0702 52.3731C33.1739 51.7738 32.3545 51.0919 31.6397 50.2781C30.5839 49.0738 29.5171 47.8696 28.4614 46.6654C27.5981 45.6756 27.9885 44.2129 29.2202 43.8115C29.3632 43.762 29.5281 43.7455 29.6766 43.7455C30.6554 43.74 31.6397 43.7345 32.6185 43.751C32.756 43.751 32.9209 43.8225 33.0199 43.916C33.6908 44.5648 34.3506 45.2302 35.005 45.8955C35.1369 46.0275 35.2579 46.055 35.4449 46.0275C35.8408 45.967 36.2477 45.912 36.6491 45.912C38.5022 45.901 40.3498 45.9065 42.2029 45.9065C42.8353 45.9065 43.3027 46.231 43.4677 46.7698C43.7206 47.5837 43.1267 48.348 42.2194 48.3535C40.9932 48.359 39.7615 48.3535 38.5352 48.3535C38.3153 48.3535 38.0953 48.348 37.8754 48.3535C37.4794 48.3645 37.221 48.6174 37.2155 48.9749C37.2155 49.3378 37.4739 49.6127 37.8644 49.6127C39.8164 49.6182 41.7685 49.6182 43.7206 49.6127C44.1165 49.6127 44.4025 49.3928 44.6774 49.1288C45.9531 47.9026 47.2289 46.6764 48.5101 45.4556C49.0325 44.9552 49.7253 44.9332 50.2202 45.3786C50.7536 45.8625 50.7646 46.6434 50.2257 47.1878C49.6593 47.7651 49.082 48.3095 48.5101 48.8649C47.2453 50.0911 45.9806 51.3119 44.7214 52.5381C44.4135 52.835 44.0725 52.989 43.6381 52.989C42.3184 52.9835 40.9987 52.989 39.679 52.989Z" fill="#CAFF33"/>
<path d="M33.1358 29.751C33.6691 30.2844 34.2025 30.8177 34.7249 31.3401C34.4005 31.6646 34.0596 32.0055 33.7186 32.3409C33.2127 31.8185 32.6794 31.2687 32.168 30.7408C32.4704 30.4328 32.8113 30.0809 33.1358 29.751Z" fill="#CAFF33"/>
<path d="M47.0203 29.751C47.3448 30.0754 47.6802 30.4218 47.9936 30.7353C47.4712 31.2577 46.9269 31.802 46.399 32.3244C46.08 32.0055 45.7446 31.6591 45.4092 31.3236C45.9316 30.8122 46.4705 30.2844 47.0203 29.751Z" fill="#CAFF33"/>
<path d="M48.2846 38.4171C48.2846 37.9497 48.2791 37.5208 48.2901 37.0919C48.2901 37.0369 48.3946 36.9379 48.4495 36.9379C49.1204 36.9269 49.7858 36.9269 50.4566 36.9379C50.5116 36.9379 50.6161 37.0204 50.6161 37.0644C50.6271 37.5098 50.6216 37.9552 50.6216 38.4171C49.8352 38.4171 49.0764 38.4171 48.2846 38.4171Z" fill="#CAFF33"/>
<path d="M31.8546 38.4336C31.0958 38.4336 30.3864 38.4391 29.6716 38.4281C29.6166 38.4281 29.5286 38.3236 29.5231 38.2632C29.5121 37.8782 29.5066 37.4933 29.5231 37.1084C29.5231 37.0479 29.6331 36.9379 29.6936 36.9379C30.3534 36.9269 31.0133 36.9269 31.6731 36.9379C31.7336 36.9379 31.8436 37.0259 31.8436 37.0809C31.8601 37.5098 31.8546 37.9497 31.8546 38.4336Z" fill="#CAFF33"/>
</g>
<defs>
<linearGradient id="paint0_linear_21_75" x1="39" y1="0" x2="39" y2="78" gradientUnits="userSpaceOnUse">
<stop stop-color="#CAFF33"/>
<stop offset="1" stop-color="#CAFF33" stop-opacity="0"/>
</linearGradient>
<linearGradient id="paint1_linear_21_75" x1="39" y1="-28.4054" x2="39" y2="159.703" gradientUnits="userSpaceOnUse">
<stop stop-color="#CAFF33"/>
<stop offset="0.467671" stop-color="#CAFF33" stop-opacity="0"/>
</linearGradient>
<linearGradient id="paint2_linear_21_75" x1="39" y1="-90.7162" x2="39" y2="120.514" gradientUnits="userSpaceOnUse">
<stop stop-color="#CAFF33"/>
<stop offset="0.716291" stop-color="#CAFF33" stop-opacity="0"/>
</linearGradient>
<clipPath id="clip0_21_75">
<rect width="22.6277" height="28" fill="white" transform="translate(28 25)"/>
</clipPath>
</defs>
</svg>
