<svg width="39" height="39" viewBox="0 0 39 39" fill="none" xmlns="http://www.w3.org/2000/svg">
<rect width="38.1496" height="38.1496" rx="19.0748" fill="#CAFF33"/>
<path fill-rule="evenodd" clip-rule="evenodd" d="M22.4053 11.0006C22.1121 11.3164 22.1304 11.8101 22.4462 12.1034L24.6316 14.1327L15.6941 14.1327C15.2631 14.1327 14.9137 14.482 14.9137 14.913C14.9137 15.344 15.2631 15.6933 15.6941 15.6933L24.6316 15.6933L22.4462 17.7226C22.1304 18.0159 22.1121 18.5096 22.4053 18.8254C22.6986 19.1412 23.1923 19.1595 23.5081 18.8663L27.1497 15.4848C27.3087 15.3372 27.399 15.13 27.399 14.913C27.399 14.696 27.3087 14.4888 27.1497 14.3412L23.5081 10.9597C23.1923 10.6665 22.6986 10.6848 22.4053 11.0006ZM15.7457 19.3241C15.4524 19.0083 14.9587 18.99 14.6429 19.2833L11.0013 22.6647C10.8423 22.8124 10.752 23.0196 10.752 23.2365C10.752 23.4535 10.8423 23.6607 11.0013 23.8084L14.6429 27.1898C14.9587 27.4831 15.4524 27.4648 15.7457 27.149C16.0389 26.8332 16.0206 26.3394 15.7048 26.0462L13.5194 24.0169H22.4569C22.8879 24.0169 23.2373 23.6675 23.2373 23.2365C23.2373 22.8056 22.8879 22.4562 22.4569 22.4562H13.5194L15.7048 20.4269C16.0206 20.1337 16.0389 19.6399 15.7457 19.3241Z" fill="#1C1C1C"/>
</svg>
