<svg width="24" height="24" viewBox="0 0 24 24" fill="none" xmlns="http://www.w3.org/2000/svg">
<path d="M10.5024 14.9516C9.82851 14.9516 9.43379 14.5722 9.43379 13.8915V13.1038C6.60356 12.9092 3.78295 12.3258 0.856445 11.2073V9.60271C4.45681 11.1976 8.06681 11.7617 11.9945 11.7617C15.9318 11.7617 19.5418 11.1976 23.1422 9.60271V11.2073C20.2157 12.3258 17.395 12.9092 14.5648 13.1038V13.8915C14.5648 14.5722 14.1701 14.9516 13.4962 14.9516H10.5024ZM3.83108 21.4188H20.1675C22.1602 21.4188 23.1422 20.4463 23.1422 18.4526V8.99003C23.1422 6.99636 22.1602 6.02385 20.1675 6.02385H3.83108C1.84799 6.02385 0.856445 6.99636 0.856445 8.99003V18.4526C0.856445 20.4463 1.84799 21.4188 3.83108 21.4188ZM7.11378 6.86994H8.6059V5.14858C8.6059 4.40947 9.03911 3.99129 9.78999 3.99129H14.2086C14.9595 3.99129 15.3831 4.40947 15.3831 5.14858V6.85049H16.8752V5.25556C16.8752 3.42723 15.9221 2.57141 14.1798 2.57141H9.80921C8.16308 2.57141 7.11378 3.42723 7.11378 5.25556V6.86994Z" fill="#B3B3B3"/>
</svg>
