<svg width="78" height="78" viewBox="0 0 78 78" fill="none" xmlns="http://www.w3.org/2000/svg">
<rect width="78" height="78" rx="39" fill="url(#paint0_linear_21_118)" fill-opacity="0.05"/>
<rect x="10" y="10" width="58" height="58" rx="29" fill="url(#paint1_linear_21_118)" fill-opacity="0.1"/>
<rect x="10.5" y="10.5" width="57" height="57" rx="28.5" stroke="url(#paint2_linear_21_118)" stroke-opacity="0.2"/>
<g clip-path="url(#clip0_21_118)">
<path d="M48.658 38.0185C48.658 38.7663 48.6681 39.5093 48.653 40.2571C48.643 40.6606 48.7584 41.0148 48.9692 41.3494C49.5112 42.2251 50.2289 42.9582 50.9566 43.6815C51.2276 43.9521 51.5086 44.2079 51.7947 44.4588C51.9352 44.5818 52.0004 44.7098 52.0004 44.9016C51.9904 45.7233 51.9904 46.54 51.9954 47.3617C52.0004 48.0456 51.6993 48.5572 51.072 48.8426C50.4296 49.1329 49.8274 49.0099 49.3004 48.5622C48.2114 47.6274 47.1274 46.6876 46.0434 45.7528C45.3056 45.1132 44.5729 44.4638 43.8201 43.8438C43.5541 43.6224 43.238 43.4601 42.9318 43.2928C42.4802 43.0468 41.9934 42.9139 41.4664 42.9336C41.085 42.9484 40.6935 42.9533 40.3121 42.9238C39.7551 42.8795 39.3586 42.5007 39.2833 41.9791C39.2131 41.5216 39.4891 41.0296 39.9508 40.8524C40.1264 40.7836 40.3222 40.754 40.5129 40.754C41.9582 40.7442 43.4036 40.7491 44.854 40.7491C45.396 40.7491 45.5917 40.5572 45.5917 40.021C45.5917 38.9385 45.5867 37.8561 45.5917 36.7737C45.5967 36.3604 45.4512 36.0357 45.135 35.7553C43.3133 34.1513 41.5015 32.5376 39.6848 30.9238C39.198 30.4908 39.1428 29.8512 39.5493 29.3838C39.9508 28.9164 40.6082 28.8721 41.1251 29.2657C43.4488 31.0369 45.7673 32.8082 48.101 34.5695C48.4874 34.8598 48.6681 35.2141 48.6631 35.6815C48.653 36.4588 48.658 37.2362 48.658 38.0185Z" fill="#CAFF33"/>
<path d="M25.0053 46.2054C25.0053 45.7626 25.0103 45.3198 25.0003 44.877C24.9952 44.7048 25.0655 44.5917 25.1809 44.4736C25.9387 43.711 26.6865 42.9385 27.4292 42.1612C27.5848 41.9988 27.7003 41.8069 27.8358 41.6298C28.1921 41.1526 28.3577 40.631 28.3426 40.0209C28.3125 38.6138 28.3476 37.2018 28.3276 35.7897C28.3175 35.2337 28.5183 34.8401 28.975 34.4957C31.2936 32.7639 33.5871 31.0025 35.8906 29.246C36.3724 28.877 37.0348 28.9361 37.4263 29.3789C37.8278 29.8315 37.7926 30.481 37.3259 30.9041C36.6183 31.5437 35.9006 32.1685 35.188 32.8032C34.0588 33.802 32.9296 34.8057 31.8004 35.8045C31.5345 36.0406 31.404 36.326 31.404 36.6704C31.404 37.8168 31.399 38.9631 31.404 40.1144C31.404 40.5375 31.6248 40.7442 32.0614 40.7442C33.5519 40.7491 35.0374 40.7442 36.5279 40.7491C37.2305 40.7491 37.7224 41.2313 37.7073 41.8807C37.6973 42.3776 37.3309 42.8254 36.824 42.8992C36.5229 42.9435 36.2068 42.9631 35.9006 42.9336C34.8718 42.8352 34.0036 43.2042 33.2358 43.8045C32.4529 44.4145 31.7201 45.0935 30.9724 45.738C29.8733 46.6827 28.7792 47.6372 27.6752 48.5769C26.7819 49.3395 25.462 49.005 25.0805 47.9176C25.0304 47.7799 25.0153 47.6273 25.0103 47.4847C25.0003 47.0615 25.0053 46.6335 25.0053 46.2054Z" fill="#CAFF33"/>
<path d="M39.2132 39.0369C39.2132 39.2731 39.2132 39.4945 39.2132 39.7356C38.7917 39.7356 38.3902 39.7356 37.9536 39.7356C37.9536 39.5437 37.9485 39.3567 37.9536 39.1698C37.9586 39.032 37.9184 38.973 37.7729 38.9385C37.3563 38.8401 36.9699 38.6728 36.6086 38.3875C36.8394 38.0874 37.0602 37.802 37.261 37.5363C37.6424 37.679 37.9887 37.8463 38.355 37.9299C38.621 37.989 38.9171 37.9496 39.1931 37.9053C39.4039 37.8709 39.5394 37.7085 39.5545 37.4871C39.5746 37.2608 39.4541 37.1033 39.2534 37.0246C38.9121 36.8967 38.5558 36.7983 38.2095 36.6851C37.9586 36.6015 37.6976 36.5277 37.4517 36.4244C36.8746 36.1833 36.5684 35.7552 36.5534 35.1255C36.5383 34.4662 36.7892 33.9348 37.3915 33.6495C37.7829 33.4625 38.1192 33.3247 37.9234 32.7786C38.35 32.7786 38.7214 32.7737 39.0978 32.7885C39.1379 32.7885 39.2082 32.9115 39.2082 32.9803C39.2333 33.3985 39.2333 33.3887 39.6298 33.5265C39.8606 33.6052 40.0814 33.7183 40.3324 33.8315C40.1216 34.1513 39.951 34.4318 39.7602 34.6974C39.7301 34.7368 39.6097 34.7319 39.5394 34.7122C39.2082 34.6286 38.887 34.5203 38.5558 34.4564C38.4253 34.4318 38.2747 34.4711 38.1392 34.5056C37.9385 34.5597 37.803 34.6925 37.7879 34.909C37.7729 35.1206 37.8682 35.2829 38.064 35.3616C38.3199 35.465 38.5809 35.5437 38.8418 35.6273C39.1279 35.7208 39.424 35.7897 39.7 35.893C40.498 36.1981 40.8192 36.6802 40.779 37.4723C40.7389 38.2005 40.2822 38.7417 39.5294 38.9533C39.4391 38.9828 39.3437 39.0074 39.2132 39.0369Z" fill="#CAFF33"/>
</g>
<defs>
<linearGradient id="paint0_linear_21_118" x1="39" y1="0" x2="39" y2="78" gradientUnits="userSpaceOnUse">
<stop stop-color="#CAFF33"/>
<stop offset="1" stop-color="#CAFF33" stop-opacity="0"/>
</linearGradient>
<linearGradient id="paint1_linear_21_118" x1="39" y1="-28.4054" x2="39" y2="159.703" gradientUnits="userSpaceOnUse">
<stop stop-color="#CAFF33"/>
<stop offset="0.467671" stop-color="#CAFF33" stop-opacity="0"/>
</linearGradient>
<linearGradient id="paint2_linear_21_118" x1="39" y1="-90.7162" x2="39" y2="120.514" gradientUnits="userSpaceOnUse">
<stop stop-color="#CAFF33"/>
<stop offset="0.716291" stop-color="#CAFF33" stop-opacity="0"/>
</linearGradient>
<clipPath id="clip0_21_118">
<rect width="27" height="20" fill="white" transform="translate(25 29)"/>
</clipPath>
</defs>
</svg>
