<svg width="60" height="60" viewBox="0 0 60 60" fill="none" xmlns="http://www.w3.org/2000/svg">
<path d="M21.2686 47.8235C21.2686 49.2042 20.1493 50.3235 18.7686 50.3235H7.5C6.11929 50.3235 5 49.2042 5 47.8235V38.7161C5 35.4601 5.59494 32.0841 6.77637 28.5911L6.77734 28.5881C7.99294 25.0631 9.63768 21.74 11.7109 18.6194V18.6174C13.5093 15.9252 15.4941 13.588 17.665 11.6086C18.4983 10.8492 19.7275 10.8006 20.6426 11.4104L26.6689 15.426C27.8093 16.1859 28.1137 17.7084 27.4189 18.8655C25.8002 21.5607 24.4085 24.3541 23.2471 27.2463L23.248 27.2473C21.8961 30.6653 21.2337 34.4484 21.2686 38.6028V47.8235ZM48.1484 47.8235C48.1484 49.2042 47.0292 50.3235 45.6484 50.3235H34.3799C32.9992 50.3235 31.8799 49.2042 31.8799 47.8235V38.7161C31.8799 35.4601 32.4739 32.0841 33.6553 28.5911L33.6562 28.5881C34.8718 25.0631 36.5166 21.74 38.5898 18.6194L38.5908 18.6174C40.3891 15.9253 42.3731 13.588 44.5439 11.6086C45.3772 10.8489 46.6073 10.8006 47.5225 11.4104L53.5488 15.426C54.6892 16.1859 54.9935 17.7084 54.2988 18.8655C52.6801 21.5607 51.2884 24.3541 50.127 27.2463L50.1279 27.2473C48.776 30.6653 48.1136 34.4484 48.1484 38.6028V47.8235Z" fill="url(#paint0_linear_11_89096)" stroke="#CAFF33"/>
<defs>
<linearGradient id="paint0_linear_11_89096" x1="30.2059" y1="11.0002" x2="30.2059" y2="49.8238" gradientUnits="userSpaceOnUse">
<stop stop-color="#CAFF33"/>
<stop offset="1" stop-color="#191919"/>
</linearGradient>
</defs>
</svg>
