<svg width="98" height="98" viewBox="0 0 98 98" fill="none" xmlns="http://www.w3.org/2000/svg">
<rect width="98" height="98" rx="49" fill="url(#paint0_linear_11_86875)" fill-opacity="0.05"/>
<rect x="12" y="12" width="74" height="74" rx="37" fill="url(#paint1_linear_11_86875)" fill-opacity="0.1"/>
<rect x="12.5" y="12.5" width="73" height="73" rx="36.5" stroke="url(#paint2_linear_11_86875)" stroke-opacity="0.2"/>
<path d="M46.8789 53.1814C45.9243 53.1814 45.3651 52.644 45.3651 51.6796V50.5637C41.3556 50.2881 37.3597 49.4615 33.2139 47.877V45.6038C38.3144 47.8633 43.4286 48.6624 48.9928 48.6624C54.5707 48.6624 59.6848 47.8633 64.7853 45.6038V47.877C60.6394 49.4615 56.6435 50.2881 52.6341 50.5637V51.6796C52.6341 52.644 52.0749 53.1814 51.1202 53.1814H46.8789ZM37.4279 62.3432H60.5712C63.3943 62.3432 64.7853 60.9656 64.7853 58.1412V44.7359C64.7853 41.9115 63.3943 40.5338 60.5712 40.5338H37.4279C34.6186 40.5338 33.2139 41.9115 33.2139 44.7359V58.1412C33.2139 60.9656 34.6186 62.3432 37.4279 62.3432ZM42.0784 41.7324H44.1923V39.2938C44.1923 38.2467 44.806 37.6543 45.8697 37.6543H52.1294C53.1932 37.6543 53.7933 38.2467 53.7933 39.2938V41.7048H55.9071V39.4454C55.9071 36.8552 54.5569 35.6428 52.0886 35.6428H45.8969C43.5649 35.6428 42.0784 36.8552 42.0784 39.4454V41.7324Z" fill="#CAFF33"/>
<defs>
<linearGradient id="paint0_linear_11_86875" x1="49" y1="0" x2="49" y2="98" gradientUnits="userSpaceOnUse">
<stop stop-color="#CAFF33"/>
<stop offset="1" stop-color="#CAFF33" stop-opacity="0"/>
</linearGradient>
<linearGradient id="paint1_linear_11_86875" x1="49" y1="-37" x2="49" y2="203" gradientUnits="userSpaceOnUse">
<stop stop-color="#CAFF33"/>
<stop offset="0.467671" stop-color="#CAFF33" stop-opacity="0"/>
</linearGradient>
<linearGradient id="paint2_linear_11_86875" x1="49" y1="-116.5" x2="49" y2="153" gradientUnits="userSpaceOnUse">
<stop stop-color="#CAFF33"/>
<stop offset="0.716291" stop-color="#CAFF33" stop-opacity="0"/>
</linearGradient>
</defs>
</svg>
